<svg xmlns="http://www.w3.org/2000/svg" version="1.1" xmlns:xlink="http://www.w3.org/1999/xlink" xmlns:svgjs="http://svgjs.dev/svgjs"  viewBox="0 0 2000 803"><g transform="matrix(1,0,0,1,-1.2121212121212466,-1.2319364667030754)"><svg viewBox="0 0 396 159" data-background-color="#21232b" preserveAspectRatio="xMidYMid meet"  xmlns="http://www.w3.org/2000/svg" xmlns:xlink="http://www.w3.org/1999/xlink"><g id="tight-bounds" transform="matrix(1,0,0,1,0.2400000000000091,0.2439326254119436)"><svg viewBox="0 0 395.52 158.5121347491761" ><g><svg viewBox="0 0 395.52 158.5121347491761" ><g><svg viewBox="0 0 395.52 158.5121347491761" ><g id="textblocktransform"><svg viewBox="0 0 395.52 158.5121347491761"  id="textblock"><g><svg viewBox="0 0 395.52 158.5121347491761" ><g transform="matrix(1,0,0,1,0,0)"><svg  viewBox="4.32 -40.5 133.34 53.44"  data-palette-color="#f4f3f0"><path d="M4.32 0L4.32-40.5 11.55-40.5 11.55-26.1Q12.5-26.76 13.79-27.34 15.09-27.93 16.58-28.37 18.07-28.81 19.65-29.06 21.24-29.32 22.83-29.32L22.83-29.32Q26.49-29.32 29.55-28.25 32.62-27.17 34.81-25.22 37.01-23.27 38.24-20.54 39.48-17.82 39.48-14.53L39.48-14.53Q39.48-11.08 38.18-8.31 36.89-5.54 34.61-3.58 32.32-1.61 29.19-0.55 26.05 0.51 22.39 0.51L22.39 0.51Q20.83 0.51 19.3 0.32 17.77 0.12 16.37-0.22 14.97-0.56 13.73-1.04 12.5-1.51 11.55-2.08L11.55-2.08 11.55 0 4.32 0ZM11.55-19.04L11.55-9.06Q12.65-8.18 13.87-7.57 15.09-6.96 16.36-6.57 17.63-6.18 18.92-5.99 20.21-5.81 21.44-5.81L21.44-5.81Q23.93-5.81 25.87-6.48 27.81-7.15 29.14-8.33 30.47-9.5 31.18-11.08 31.88-12.67 31.88-14.53L31.88-14.53Q31.88-16.26 31.19-17.8 30.49-19.34 29.19-20.5 27.88-21.66 26.04-22.33 24.19-23 21.9-23L21.9-23Q20.43-23 18.97-22.72 17.5-22.44 16.15-21.92 14.79-21.41 13.61-20.68 12.43-19.95 11.55-19.04L11.55-19.04ZM46.36 0L46.36-40.5 53.59-40.5 53.59 0 46.36 0ZM61.1-14.4L61.1-14.4Q61.1-17.5 62.36-20.21 63.62-22.92 65.95-24.95 68.28-26.98 71.59-28.15 74.9-29.32 79.02-29.32L79.02-29.32Q83.15-29.32 86.46-28.15 89.77-26.98 92.1-24.95 94.43-22.92 95.69-20.21 96.94-17.5 96.94-14.4L96.94-14.4Q96.94-11.3 95.69-8.59 94.43-5.88 92.1-3.86 89.77-1.83 86.46-0.66 83.15 0.51 79.02 0.51L79.02 0.51Q74.9 0.51 71.59-0.66 68.28-1.83 65.95-3.86 63.62-5.88 62.36-8.59 61.1-11.3 61.1-14.4ZM68.7-14.4L68.7-14.4Q68.7-12.67 69.39-11.12 70.09-9.57 71.42-8.39 72.75-7.2 74.67-6.51 76.58-5.81 79.02-5.81L79.02-5.81Q81.46-5.81 83.38-6.51 85.3-7.2 86.63-8.39 87.96-9.57 88.65-11.12 89.35-12.67 89.35-14.4L89.35-14.4Q89.35-16.14 88.65-17.7 87.96-19.26 86.63-20.45 85.3-21.63 83.38-22.33 81.46-23.02 79.02-23.02L79.02-23.02Q76.58-23.02 74.67-22.33 72.75-21.63 71.42-20.45 70.09-19.26 69.39-17.7 68.7-16.14 68.7-14.4ZM106.07 10.99L108.76 4.88Q110.12 5.37 111.54 5.7 112.96 6.03 114.29 6.24 115.62 6.45 116.84 6.53 118.06 6.62 119.01 6.62L119.01 6.62Q121.89 6.62 124.03 5.92 126.16 5.22 127.59 4.05 129.02 2.88 129.73 1.33 130.44-0.22 130.44-1.95L130.44-1.95 130.44-3.2Q129.51-2.56 128.26-1.98 127.02-1.39 125.53-0.95 124.04-0.51 122.37-0.24 120.7 0.02 118.91 0.02L118.91 0.02Q115.37 0.02 112.37-1.04 109.37-2.1 107.17-4.02 104.97-5.93 103.74-8.62 102.51-11.3 102.51-14.58L102.51-14.58Q102.51-17.92 103.8-20.64 105.1-23.36 107.38-25.29 109.66-27.22 112.79-28.27 115.91-29.32 119.57-29.32L119.57-29.32Q121.14-29.32 122.67-29.13 124.21-28.93 125.62-28.59 127.02-28.25 128.25-27.77 129.48-27.29 130.44-26.73L130.44-26.73 130.44-28.81 137.66-28.81 137.66-3.3Q137.66 0.63 136.47 3.66 135.27 6.69 132.96 8.75 130.66 10.82 127.24 11.88 123.82 12.94 119.4 12.94L119.4 12.94Q117.81 12.94 116.11 12.81 114.4 12.67 112.68 12.41 110.95 12.16 109.28 11.8 107.61 11.45 106.07 10.99L106.07 10.99ZM110.1-14.65L110.1-14.65Q110.1-12.92 110.8-11.39 111.49-9.86 112.79-8.73 114.08-7.59 115.91-6.95 117.74-6.3 120.04-6.3L120.04-6.3Q121.53-6.3 123-6.58 124.48-6.86 125.83-7.37 127.19-7.89 128.37-8.62 129.56-9.35 130.44-10.25L130.44-10.25 130.44-19.75Q129.34-20.63 128.12-21.24 126.9-21.85 125.63-22.24 124.36-22.63 123.06-22.81 121.77-23 120.55-23L120.55-23Q118.06-23 116.12-22.34 114.18-21.68 112.85-20.54 111.52-19.41 110.81-17.9 110.1-16.38 110.1-14.65Z" opacity="1" transform="matrix(1,0,0,1,0,0)" fill="#000000" class="wordmark-text-0" data-fill-palette-color="primary" id="text-0"></path></svg></g></svg></g></svg></g></svg></g></svg></g><defs></defs></svg><rect  fill="none" stroke="none" visibility="hidden"></rect></g></svg></g></svg>